<?xml version="1.0" encoding="UTF-8"?><svg id="a" xmlns="http://www.w3.org/2000/svg" viewBox="0 0 500 500"><defs><style>.b{opacity:.5;stroke:#fff;stroke-miterlimit:10;stroke-width:11.75px;}.b,.c{fill:#fff;}.d{fill:#2b4fdf;}</style></defs><circle class="d" cx="250.25" cy="245.75" r="236.75"/><path class="c" d="M381.72,326.1c-1.51,0-2.96-1.09-4.02-3l-26.86-62.02c-1.26-2.89-3.2-4.58-5.26-4.59H190.05c-16.37,0-29.64-23.4-29.64-52.37s13.27-52.46,29.64-52.46v.08h194.36c16.35,0,29.6,23.45,29.59,52.37,0,23.55-8.88,44.2-21.71,50.48-2.84,1.43-4.81,6.03-4.8,11.26v50.06c.02,4.12-1.38,7.85-3.54,9.39-.71,.52-1.47,.8-2.23,.8Z"/><path class="b" d="M303.09,373c-1.51,0-2.96-1.09-4.02-3l-26.86-62.02c-1.26-2.89-3.2-4.58-5.26-4.59H111.42c-16.37,0-29.64-23.4-29.64-52.37s13.27-52.46,29.64-52.46v.08h194.36c16.35,0,29.6,23.45,29.59,52.37,0,23.55-8.88,44.2-21.71,50.48-2.84,1.43-4.81,6.03-4.8,11.26v50.06c.02,4.12-1.38,7.85-3.54,9.39-.71,.52-1.47,.8-2.23,.8Z"/><g><rect class="c" x="97.01" y="193.42" width="37.29" height="18.65" transform="translate(.31 -.18) rotate(.09)"/><rect class="c" x="123.13" y="121.44" width="37.29" height="18.65" transform="translate(141.6 -62.1) rotate(47.26)"/><rect class="c" x="193.66" y="91.67" width="37.29" height="18.65" transform="translate(329.41 -102.87) rotate(94.44)"/></g><g><circle class="d" cx="230" cy="202" r="15"/><circle class="d" cx="287.5" cy="202" r="15"/><circle class="d" cx="345" cy="202" r="15"/></g></svg>