<?xml version="1.0" encoding="UTF-8"?><svg id="a" xmlns="http://www.w3.org/2000/svg" viewBox="0 0 500 500"><defs><style>.c{fill:#f2f2f2;}.d{fill:#e6e6e6;}.e,.f{fill:#fff;}.g{fill:#2b4fdf;}.f{opacity:.5;}</style></defs><circle class="g" cx="247.2" cy="245.75" r="236.75"/><g><rect class="e" x="321.02" y="151.15" width="29.5" height="14.75" transform="translate(409.88 -205.32) rotate(76.24)"/><rect class="e" x="381.26" y="157.58" width="29.5" height="14.75" transform="translate(751.77 -74.77) rotate(123.41)"/><rect class="e" x="417.49" y="206.12" width="29.5" height="14.75" transform="translate(893.58 353.42) rotate(170.59)"/></g><circle id="b" class="d" cx="83.33" cy="226.96" r="1.06"/><rect class="f" x="91.48" y="156.94" width="191.03" height="189.06" rx="18.21" ry="18.21"/><path class="f" d="M142.16,160.69c-25.92,0-46.93,21.01-46.93,46.93v120.16c0,7.99,6.48,14.47,14.47,14.47h98.67c38.88,0,70.4-31.52,70.4-70.4v-96.7c0-7.99-6.48-14.47-14.47-14.47h-122.13Z"/><path class="c" d="M210.57,277.87H105.69c-1.25,0-2.26-1.01-2.26-2.26s1.01-2.26,2.26-2.26h104.88c1.25,0,2.26,1.01,2.26,2.26s-1.01,2.26-2.26,2.26Z"/><path class="c" d="M210.57,213.35H52.6c-1.25,0-2.26-1.01-2.26-2.26s1.01-2.26,2.26-2.26H210.57c1.25,0,2.26,1.01,2.26,2.26s-1.01,2.26-2.26,2.26Z"/><path class="c" d="M210.58,229.5H52.6c-1.25,0-2.26,1.01-2.26,2.26s1.01,2.26,2.26,2.26H210.58c1.25,0,2.26-1.01,2.26-2.26s-1.01-2.26-2.26-2.26Z"/><path class="c" d="M210.57,254.71H52.6c-1.25,0-2.26-1.01-2.26-2.26s1.01-2.26,2.26-2.26H210.57c1.25,0,2.26,1.01,2.26,2.26s-1.01,2.26-2.26,2.26Z"/><path class="e" d="M214.26,191.66h153.73c10,0,18.11,8.27,18.11,18.47v80.87c0,10.2-8.11,18.47-18.11,18.47H214.26c-10,0-18.11-8.27-18.11-18.47v-80.87c0-10.2,8.11-18.47,18.11-18.47Z"/><path class="g" d="M368.68,309.3H214.09c-10.43-.01-18.88-8.46-18.9-18.9v-79.75c.01-10.43,8.46-18.88,18.9-18.9h154.6c10.43,.01,18.88,8.46,18.9,18.9v79.75c-.01,10.43-8.46,18.88-18.9,18.9Zm-154.6-116.18c-9.68,0-17.53,7.85-17.53,17.53h0v29.81c0,37.27,30.21,67.48,67.48,67.48h104.65c9.68,0,17.53-7.85,17.53-17.53h0v-79.76c0-9.68-7.85-17.53-17.53-17.53H214.09Z"/><path class="g" d="M231.85,273.09h36.1c1.32,0,2.38,1.07,2.38,2.38h0c0,1.32-1.07,2.38-2.38,2.38h-36.1c-1.32,0-2.38-1.07-2.38-2.38h0c0-1.32,1.07-2.38,2.38-2.38Z"/><rect class="g" x="336.33" y="270.62" width="29.97" height="17.71" rx="2.38" ry="2.38"/><circle class="g" cx="228.73" cy="224.99" r="12.26"/><path class="g" d="M245.17,307.73l-31.93-.68c-8.27-.01-14.97-6.71-14.98-14.98l-1.36-33.38c3.92,27.21,18.99,44.48,48.27,49.05Z"/></svg>