<?xml version="1.0" encoding="UTF-8"?><svg id="a" xmlns="http://www.w3.org/2000/svg" viewBox="0 0 500 500"><defs><style>.c{fill:#f9f9f9;}.d{fill:#e6e6e6;}.e{fill:#fff;}.f{fill:#2b4fdf;}.g{opacity:.5;}</style></defs><circle class="f" cx="246.78" cy="246.75" r="236.75"/><g><g class="g"><circle class="e" cx="198.23" cy="307.89" r="90.58"/></g><g><rect class="e" x="84.43" y="178.42" width="37.29" height="18.65" transform="translate(.29 -.16) rotate(.09)"/><rect class="e" x="110.54" y="106.44" width="37.29" height="18.65" transform="translate(126.54 -57.68) rotate(47.26)"/><rect class="e" x="181.08" y="76.67" width="37.29" height="18.65" transform="translate(300.9 -106.48) rotate(94.44)"/></g><g id="b"><circle class="d" cx="139.75" cy="235.44" r="1.59"/></g><g><path class="e" d="M198.62,283.59h17.65v-50.78c0-1.97,.06-4.04,.18-6.21l-12.53,10.48c-.52,.44-1.05,.74-1.6,.9-.54,.16-1.07,.24-1.6,.24-.8,0-1.54-.17-2.2-.51-.66-.34-1.15-.73-1.48-1.17l-4.7-6.45,26.56-22.59h12.23v76.08h15.66v11.14h-48.19v-11.14Z"/><path class="e" d="M309.04,261.9h10.96v8.61c0,.8-.26,1.5-.78,2.08-.52,.58-1.29,.87-2.29,.87h-7.89v21.26h-13.01v-21.26h-36.75c-1,0-1.89-.31-2.65-.93-.76-.62-1.25-1.4-1.45-2.32l-1.51-7.53,41.26-55.12h14.1v54.33Zm-13.01-28.49c0-1.28,.04-2.67,.12-4.16,.08-1.49,.22-3.03,.42-4.64l-27.05,37.29h26.5v-28.49Z"/></g><path class="e" d="M372.26,208.07v24.7h23.43v11.02h-23.43v24.82h-12.05v-24.82h-23.31v-11.02h23.31v-24.7h12.05Z"/><path class="c" d="M263.8,388h-.39c-73.89,0-134-60.11-134-134s60.11-134,134-134c40.46,0,78.34,18.01,103.93,49.41,4.19,5.14,3.42,12.7-1.72,16.88-5.14,4.19-12.7,3.42-16.88-1.72-21.01-25.78-52.11-40.57-85.32-40.57-60.65,0-110,49.35-110,110s49.12,109.77,109.58,110c7.73-.59,28.75-4.1,38.82-13.81,4.77-4.6,12.37-4.46,16.97,.31,4.6,4.77,4.46,12.37-.31,16.97-8.07,7.78-19.75,13.6-34.72,17.29-10.63,2.62-19.21,3.2-19.57,3.22l-.39,.02Z"/><g><path class="e" d="M353.26,285.45v3.26h-9.77v6.53h8.25v3.28h-8.25v8.98h-4.13v-22.05h13.91Z"/><path class="e" d="M360.72,298.88v8.62h-4.1v-22.05h6.72c1.5,0,2.79,.15,3.87,.46,1.07,.31,1.95,.75,2.64,1.3,.69,.56,1.19,1.23,1.51,2,.32,.78,.48,1.63,.48,2.57,0,.74-.11,1.44-.33,2.1-.22,.66-.53,1.26-.95,1.8-.41,.54-.92,1.01-1.53,1.42-.6,.41-1.29,.73-2.07,.98,.52,.29,.97,.72,1.34,1.27l5.52,8.14h-3.69c-.36,0-.66-.07-.91-.21-.25-.14-.46-.34-.63-.61l-4.64-7.06c-.17-.26-.36-.45-.57-.56-.21-.11-.52-.17-.92-.17h-1.75Zm0-2.94h2.56c.77,0,1.45-.1,2.02-.29,.57-.19,1.05-.46,1.42-.8s.65-.75,.83-1.21c.18-.47,.27-.98,.27-1.54,0-1.12-.37-1.98-1.11-2.58-.74-.6-1.86-.9-3.38-.9h-2.62v7.32Z"/><path class="e" d="M390.36,285.45v3.26h-9.77v6.11h7.7v3.16h-7.7v6.24h9.77v3.28h-13.91v-22.05h13.91Z"/><path class="e" d="M407.82,285.45v3.26h-9.77v6.11h7.7v3.16h-7.7v6.24h9.77v3.28h-13.91v-22.05h13.91Z"/></g><polygon class="c" points="346.77 329.33 332.54 358.82 318.32 388.32 299.88 361.26 281.45 334.19 314.11 331.76 346.77 329.33"/></g></svg>