<?xml version="1.0" encoding="UTF-8"?><svg id="a" xmlns="http://www.w3.org/2000/svg" viewBox="0 0 500 500"><defs><style>.c{fill:#e6e6e6;}.d,.e{fill:#fff;}.f{fill:#2b4fdf;}.e{opacity:.5;}</style></defs><circle class="f" cx="247.2" cy="245.75" r="236.75"/><path class="e" d="M360.62,397H188.78c-6.28,0-11.38-5.09-11.38-11.38l108-51.23c0-6.28,5.09-11.38,11.38-11.38l63.84-180c6.28,0,11.38,5.09,11.38,11.38v231.23c0,6.28-5.09,11.38-11.38,11.38Z"/><g><rect class="d" x="87.7" y="146.62" width="32.31" height="16.15" transform="translate(31.42 -16.97) rotate(11)"/><rect class="d" x="121.71" y="89.67" width="32.31" height="16.15" transform="translate(148.21 -70.93) rotate(58.17)"/><rect class="d" x="186.59" y="75.91" width="32.31" height="16.15" transform="translate(337.39 -89.31) rotate(105.35)"/></g><circle id="b" class="c" cx="94.01" cy="231.9" r="1.56"/><g><path class="d" d="M249.12,250.94c-5.3,0-9.45,1.39-12.46,4.18-3.01,2.79-4.52,6.89-4.52,12.33,0,2.28,.36,4.41,1.1,6.37,.73,1.96,1.82,3.65,3.25,5.07,1.44,1.42,3.21,2.52,5.31,3.32,2.1,.8,4.54,1.2,7.33,1.2s5.23-.4,7.33-1.2c2.1-.8,3.87-1.91,5.31-3.32,1.44-1.41,2.52-3.1,3.25-5.07,.73-1.96,1.1-4.09,1.1-6.37,0-5.43-1.51-9.54-4.52-12.33-3.01-2.78-7.17-4.18-12.46-4.18Z"/><path class="d" d="M237.68,232.9c1.14,1.44,2.65,2.59,4.52,3.46,1.87,.87,4.18,1.3,6.92,1.3s5.04-.43,6.92-1.3c1.87-.87,3.38-2.02,4.52-3.46,1.14-1.44,1.95-3.08,2.43-4.93,.48-1.85,.72-3.75,.72-5.72s-.3-3.65-.89-5.34c-.59-1.69-1.48-3.18-2.67-4.49-1.19-1.3-2.69-2.34-4.52-3.12-1.83-.78-4-1.16-6.51-1.16s-4.68,.39-6.51,1.16c-1.83,.78-3.34,1.81-4.55,3.12-1.21,1.3-2.1,2.8-2.67,4.49-.57,1.69-.86,3.47-.86,5.34,0,1.96,.24,3.87,.72,5.72,.48,1.85,1.29,3.49,2.43,4.93Z"/><path class="d" d="M150.91,127.17v243.43c0,2.97,2.41,5.39,5.39,5.39h122.98c1.43,0,2.8-.57,3.81-1.58l62.68-62.68c1.01-1.01,1.58-2.38,1.58-3.81V127.17c0-2.97-2.41-5.39-5.39-5.39H156.29c-2.97,0-5.39,2.41-5.39,5.39Zm130.09,152.46c-1.67,3.56-4.01,6.6-7.02,9.11-3.01,2.51-6.63,4.45-10.85,5.82-4.22,1.37-8.89,2.05-14,2.05s-9.78-.68-14-2.05c-4.22-1.37-7.84-3.31-10.85-5.82-3.01-2.51-5.35-5.55-7.02-9.11-1.67-3.56-2.5-7.53-2.5-11.92,0-5.84,1.44-10.79,4.31-14.83,1.42-1.99,3.22-3.73,5.42-5.22,2.86-1.94,3.08-6.08,.52-8.4-1.31-1.19-2.43-2.5-3.37-3.95-2.4-3.7-3.6-8.15-3.6-13.35,0-3.74,.76-7.23,2.29-10.48,1.53-3.24,3.66-6.06,6.4-8.46s6.01-4.27,9.83-5.62c3.81-1.35,8-2.02,12.57-2.02s8.75,.67,12.57,2.02c3.81,1.35,7.09,3.22,9.83,5.62s4.87,5.22,6.4,8.46c1.53,3.24,2.29,6.73,2.29,10.48,0,5.2-1.21,9.66-3.63,13.35-.94,1.44-2.06,2.75-3.36,3.93-2.56,2.33-2.34,6.46,.52,8.4,2.21,1.49,4.02,3.24,5.44,5.23,2.88,4.04,4.31,8.98,4.31,14.83,0,4.38-.83,8.35-2.5,11.92Z"/></g></svg>