<?xml version="1.0" encoding="UTF-8"?><svg id="a" xmlns="http://www.w3.org/2000/svg" viewBox="0 0 500 500"><defs><style>.b,.c{fill:#fff;}.d{fill:#2b4fdf;}.c{opacity:.5;}</style></defs><circle class="d" cx="250.25" cy="245.75" r="236.75"/><circle class="c" cx="176.81" cy="216.89" r="90.58"/><path class="b" d="M404.29,333.17l-87.19-87.19c27.58-42.9,15.16-100.04-27.74-127.62-.77-.49-1.55-.98-2.33-1.45-41.34-24.7-94.71-13.61-122.79,25.51-29.61,41.52-19.96,99.19,21.56,128.81,30.76,21.94,71.78,22.93,103.56,2.49l87.19,87.19c7.68,7.64,20.09,7.61,27.74-.06,7.62-7.65,7.62-20.02,0-27.67Zm-118.18-90.45c-25.79,25.79-67.6,25.79-93.39,0-25.79-25.79-25.79-67.6,0-93.39,25.79-25.79,67.6-25.79,93.39,0,12.39,12.38,19.34,29.18,19.34,46.7,.02,17.52-6.94,34.32-19.34,46.7Z"/><rect class="b" x="131.71" y="96.59" width="41.45" height="20.72" transform="translate(97.58 -71) rotate(37.81)"/><rect class="b" x="203.61" y="51.07" width="41.45" height="20.72" transform="translate(265.92 -167.41) rotate(84.99)"/><rect class="b" x="285.87" y="72.86" width="41.45" height="20.72" transform="translate(574.07 -88.19) rotate(132.16)"/></svg>