<?xml version="1.0" encoding="UTF-8"?><svg id="a" xmlns="http://www.w3.org/2000/svg" viewBox="0 0 500 500"><defs><style>.b,.c,.d{fill:#fff;}.e{fill:#2b4fdf;}.c{opacity:.5;stroke:#fff;stroke-miterlimit:10;stroke-width:10px;}.d{isolation:isolate;}</style></defs><circle class="e" cx="250.25" cy="245.75" r="236.75"/><path class="b" d="M251.08,411c39.71,.06,78.56-11.56,111.71-33.43-7.49-40.93-35.99-43.26-35.99-43.26H169.64s-26.89,2.21-35.29,39.86c34.17,24.04,74.95,36.91,116.73,36.83Z"/><path class="e" d="M249.83,400.7c28.86,.05,57.09-8.4,81.17-24.29-5.44-29.74-26.15-31.43-26.15-31.43h-114.2s-19.54,1.6-25.65,28.96c24.83,17.47,54.47,26.82,84.83,26.77Z"/><ellipse class="b" cx="248.92" cy="225.8" rx="98.09" ry="91.2"/><ellipse class="e" cx="248.92" cy="225.8" rx="66.08" ry="61.44"/><path class="d" d="M217.26,307h62.85v23.38c0,8.07-14.06,14.61-31.41,14.62h0c-17.36,0-31.43-6.54-31.43-14.62h0v-23.38h-.01Z"/><circle class="c" cx="216.92" cy="222.24" r="90.09"/><path class="b" d="M184.42,153.94c2.56-7.93,6.98-15.12,12.9-20.98,17.72-17.52,46.77-21.21,61.67-41.19,3.57,5.54,.81,14.07-5.35,16.45,14.28-.1,30.82-1.34,38.89-13.09,4.07,9.48,2.32,20.46-4.5,28.2,12.65,.59,26.17,9.16,26.97,21.8,.55,8.42-4.76,16.39-11.65,21.22s-15.29,7.05-23.53,8.86c-24.06,5.31-111.09,27.54-95.4-21.28Z"/><rect class="b" x="152.71" y="93.59" width="41.45" height="20.72" transform="translate(100.15 -84.5) rotate(37.81)"/><rect class="b" x="224.61" y="48.07" width="41.45" height="20.72" transform="translate(282.1 -191.07) rotate(84.99)"/><rect class="b" x="306.87" y="69.86" width="41.45" height="20.72" transform="translate(606.95 -108.77) rotate(132.16)"/></svg>