<?xml version="1.0" encoding="UTF-8"?><svg id="a" xmlns="http://www.w3.org/2000/svg" viewBox="0 0 500 500"><defs><style>.c{fill:#e6e6e6;}.d,.e,.f{fill:#fff;}.g{fill:#2b4fdf;}.e{opacity:.5;stroke:#fff;stroke-miterlimit:10;stroke-width:10px;}.f{isolation:isolate;}</style></defs><circle class="g" cx="247.2" cy="245.75" r="236.75"/><g><rect class="d" x="310.13" y="133.78" width="34.18" height="17.09" transform="translate(478.53 -180.83) rotate(91.58)"/><rect class="d" x="375.45" y="159.42" width="34.18" height="17.09" transform="translate(798.44 35.49) rotate(138.76)"/><rect class="d" x="401.05" y="224.77" width="34.18" height="17.09" transform="translate(809.93 508.6) rotate(-174.07)"/></g><circle id="b" class="c" cx="77.73" cy="227.29" r="1.71"/><g><path class="d" d="M302.17,402c31.58,.05,62.47-9.19,88.83-26.58-5.96-32.54-28.62-34.4-28.62-34.4h-124.97s-21.39,1.75-28.06,31.69c27.17,19.11,59.6,29.35,92.83,29.29Z"/><ellipse class="d" cx="300.45" cy="254.73" rx="78" ry="72.52"/><path class="f" d="M275.28,319.3h49.98v18.6c0,6.42-11.18,11.62-24.98,11.62h0c-13.8,0-24.99-5.2-24.99-11.62h0v-18.6h0Z"/></g><path class="d" d="M220.08,416c39.71,.06,78.56-11.56,111.71-33.43-7.49-40.93-35.99-43.26-35.99-43.26H138.64s-26.89,2.21-35.29,39.86c34.17,24.04,74.95,36.91,116.73,36.83Z"/><path class="g" d="M218.83,405.7c28.86,.05,57.09-8.4,81.17-24.29-5.44-29.74-26.15-31.43-26.15-31.43h-114.2s-19.54,1.6-25.65,28.96c24.83,17.47,54.47,26.82,84.83,26.77Z"/><ellipse class="d" cx="217.92" cy="230.8" rx="98.09" ry="91.2"/><ellipse class="g" cx="217.92" cy="230.8" rx="66.08" ry="61.44"/><path class="f" d="M186.26,312h62.85v23.38c0,8.07-14.06,14.61-31.41,14.62h0c-17.36,0-31.43-6.54-31.43-14.62h0v-23.38h-.01Z"/><circle class="e" cx="193.92" cy="227.24" r="90.09"/><path class="d" d="M153.42,158.94c2.56-7.93,6.98-15.12,12.9-20.98,17.72-17.52,46.77-21.21,61.67-41.19,3.57,5.54,.81,14.07-5.35,16.45,14.28-.1,30.82-1.34,38.89-13.09,4.07,9.48,2.32,20.46-4.5,28.2,12.65,.59,26.17,9.16,26.97,21.8,.55,8.42-4.76,16.39-11.65,21.22s-15.29,7.05-23.53,8.86c-24.06,5.31-111.09,27.54-95.4-21.28Z"/><rect class="d" x="121.71" y="98.59" width="41.45" height="20.72" transform="translate(96.7 -64.45) rotate(37.81)"/><rect class="d" x="193.61" y="53.07" width="41.45" height="20.72" transform="translate(258.79 -155.63) rotate(84.99)"/><rect class="d" x="275.87" y="74.86" width="41.45" height="20.72" transform="translate(558.84 -77.43) rotate(132.16)"/></svg>